<?xml version="1.0" encoding="utf-8"?>
<!-- Generator: Adobe Illustrator 27.9.0, SVG Export Plug-In . SVG Version: 6.00 Build 0)  -->
<svg version="1.1" id="b" xmlns="http://www.w3.org/2000/svg" xmlns:xlink="http://www.w3.org/1999/xlink" x="0px" y="0px"
	 viewBox="0 0 77 9.5" style="enable-background:new 0 0 77 9.5;" xml:space="preserve">
<style type="text/css">
	.st0{fill:#072D2E;}
</style>
<g>
	<path class="st0" d="M0,0.2C0,0.1,0.1,0,0.2,0h2.9c1.5,0,2.5,1,2.5,2.4c0,1.4-1,2.4-2.5,2.4H2.5c-0.6,0-1.1,0.3-1.1,0.7v1.6
		c0,0.1-0.1,0.2-0.2,0.2H0.2C0.1,7.4,0,7.3,0,7.2V0.2z M2.5,3.5h0.6c0.6,0,1.1-0.5,1.1-1c0-0.6-0.4-1-1.1-1H1.4v2.4
		C1.7,3.6,2.1,3.5,2.5,3.5z"/>
	<path class="st0" d="M9,3.3c-0.6,0-1.1,0.6-1.1,1.2l0,2.7c0,0.1-0.1,0.2-0.2,0.2H6.7c-0.1,0-0.2-0.1-0.2-0.2V0.2
		C6.5,0.1,6.6,0,6.7,0h0.9c0.1,0,0.2,0.1,0.2,0.2v2.6C8.2,2.3,8.8,2,9.4,2c1.1,0,1.9,1,1.9,2.4v2.8c0,0.1-0.1,0.2-0.2,0.2h-0.9
		c-0.1,0-0.2-0.1-0.2-0.2V4.4C10,3.7,9.6,3.2,9,3.3z"/>
	<path class="st0" d="M12.1,4.8c0-1.6,1.2-2.8,2.7-2.8c0.8,0,1.4,0.4,1.8,1V2.4c0-0.1,0.1-0.2,0.2-0.2h0.9c0.1,0,0.2,0.1,0.2,0.2
		v4.8c0,0.1-0.1,0.2-0.2,0.2h-0.9c-0.1,0-0.2-0.1-0.2-0.2V6.6c-0.4,0.6-1,1-1.8,1C13.3,7.6,12.1,6.4,12.1,4.8z M15.1,6.3
		c0.9,0,1.6-0.7,1.6-1.6c0-0.9-0.7-1.6-1.6-1.6c-0.9,0-1.6,0.7-1.6,1.6C13.5,5.7,14.1,6.3,15.1,6.3z"/>
	<path class="st0" d="M20,2.1h1.5c0.1,0,0.2,0.1,0.2,0.2v0.8c0,0.1-0.1,0.2-0.2,0.2h-1.1v3.7c0,0.1-0.1,0.2-0.2,0.2h-0.9
		c-0.1,0-0.2-0.1-0.2-0.2V3.1C19,2.5,19.5,2.1,20,2.1z"/>
	<path class="st0" d="M28,3.3c-0.7,0-1,0.6-1,1.3v2.7c0,0.1-0.1,0.2-0.2,0.2h-0.9c-0.1,0-0.2-0.1-0.2-0.2V4.4c0-0.7-0.3-1.1-0.9-1.1
		c-0.7,0-1.1,0.6-1.1,1.3v2.7c0,0.1-0.1,0.2-0.2,0.2h-0.9c-0.1,0-0.2-0.1-0.2-0.2V2.4c0-0.1,0.1-0.2,0.2-0.2h0.9
		c0.1,0,0.2,0.1,0.2,0.2v0.5C24,2.3,24.6,2,25.3,2C26,2,26.5,2.4,26.8,3C27.1,2.4,27.7,2,28.5,2c1.1,0,1.9,1,1.9,2.4v2.8
		c0,0.1-0.1,0.2-0.2,0.2h-0.9c-0.1,0-0.2-0.1-0.2-0.2V4.4C29,3.7,28.6,3.3,28,3.3z"/>
	<path class="st0" d="M31.1,4.8c0-1.6,1.2-2.8,2.7-2.8c0.8,0,1.4,0.4,1.8,1V2.4c0-0.1,0.1-0.2,0.2-0.2h0.9c0.1,0,0.2,0.1,0.2,0.2
		v4.8c0,0.1-0.1,0.2-0.2,0.2h-0.9c-0.1,0-0.2-0.1-0.2-0.2V6.6c-0.4,0.6-1,1-1.8,1C32.3,7.6,31.1,6.4,31.1,4.8z M34.1,6.3
		c0.9,0,1.6-0.7,1.6-1.6c0-0.9-0.7-1.6-1.6-1.6c-0.9,0-1.6,0.7-1.6,1.6C32.5,5.7,33.2,6.3,34.1,6.3z"/>
</g>
<g>
	<path class="st0" d="M41.6,0h4.3c0.1,0,0.2,0.1,0.2,0.2v0.9c0,0.1-0.1,0.2-0.2,0.2h-3.1v2.5c0.3-0.5,0.8-0.8,1.4-0.8h1.6
		c0.1,0,0.2,0.1,0.2,0.2v0.8c0,0.1-0.1,0.2-0.2,0.2h-1.9c-0.6,0-1.1,0.3-1.1,1V6h3.1c0.1,0,0.2,0.1,0.2,0.2v0.9
		c0,0.1-0.1,0.2-0.2,0.2h-4.3c-0.1,0-0.2-0.1-0.2-0.2V0.2C41.4,0.1,41.5,0,41.6,0z"/>
	<path class="st0" d="M49.3,5.8l-1.2,1.6c0,0.1-0.1,0.1-0.2,0.1h-1c-0.2,0-0.3-0.2-0.2-0.4l1.8-2.3l-1.7-2.2c-0.1-0.2,0-0.4,0.2-0.4
		h1c0.1,0,0.1,0,0.2,0.1l1.1,1.4l1.1-1.4c0-0.1,0.1-0.1,0.2-0.1h1c0.2,0,0.3,0.2,0.2,0.4l-1.7,2.2L51.8,7c0.1,0.2,0,0.4-0.2,0.4h-1
		c-0.1,0-0.2,0-0.2-0.1C50.5,7.3,49.3,5.8,49.3,5.8z"/>
	<path class="st0" d="M54,6.6v2.7c0,0.1-0.1,0.2-0.2,0.2h-0.9c-0.1,0-0.2-0.1-0.2-0.2V2.4c0-0.1,0.1-0.2,0.2-0.2h0.9
		c0.1,0,0.2,0.1,0.2,0.2v0.6c0.4-0.6,1-1,1.8-1c1.5,0,2.8,1.2,2.8,2.8s-1.2,2.8-2.8,2.8C55,7.6,54.4,7.2,54,6.6z M55.6,6.3
		c0.9,0,1.6-0.7,1.6-1.6c0-0.9-0.7-1.6-1.6-1.6c-0.9,0-1.6,0.7-1.6,1.6C54,5.7,54.7,6.3,55.6,6.3z"/>
	<path class="st0" d="M60.3,2.1h1.5c0.1,0,0.2,0.1,0.2,0.2v0.8c0,0.1-0.1,0.2-0.2,0.2h-1.1v3.7c0,0.1-0.1,0.2-0.2,0.2h-0.9
		c-0.1,0-0.2-0.1-0.2-0.2V3.1C59.3,2.5,59.7,2.1,60.3,2.1z"/>
	<path class="st0" d="M62.1,4.6C62.2,3.1,63.5,1.9,65,2c1.7,0,2.7,1.3,2.6,3.1c0,0.1-0.1,0.2-0.2,0.2h-3.8C63.7,6,64.3,6.4,65,6.4
		c0.4,0,0.8-0.1,1.1-0.4c0.1-0.1,0.2-0.1,0.3,0L67,6.5c0.1,0.1,0.1,0.3,0,0.4c-0.5,0.4-1.2,0.7-2,0.7C63.3,7.6,62,6.2,62.1,4.6z
		 M66.3,4.3c-0.1-0.6-0.6-1.1-1.3-1.1c-0.7,0-1.3,0.5-1.4,1.1C63.5,4.3,66.3,4.3,66.3,4.3z"/>
	<path class="st0" d="M68.2,6.3l0.5-0.4c0.1-0.1,0.2-0.1,0.3,0c0.4,0.4,0.8,0.6,1.2,0.6c0.5,0,0.8-0.2,0.8-0.5
		c0-0.3-0.4-0.5-0.9-0.6c-1-0.3-1.9-0.8-1.9-1.8S69,2,70.2,2c0.6,0,1.3,0.3,1.8,0.8c0.1,0.1,0.1,0.3,0,0.3l-0.5,0.4
		c-0.1,0.1-0.3,0.1-0.3,0c-0.2-0.3-0.6-0.5-0.9-0.5c-0.4,0-0.7,0.2-0.7,0.5c0,0.4,0.4,0.5,1,0.7c1,0.2,1.8,0.8,1.8,1.7
		c0,1-0.9,1.7-2.1,1.7c-0.8,0-1.6-0.3-2-1C68.1,6.5,68.1,6.4,68.2,6.3z"/>
	<path class="st0" d="M72.9,6.3l0.5-0.4c0.1-0.1,0.2-0.1,0.3,0c0.4,0.4,0.8,0.6,1.2,0.6c0.5,0,0.8-0.2,0.8-0.5
		c0-0.3-0.4-0.5-0.9-0.6c-1-0.3-1.9-0.8-1.9-1.8s0.8-1.6,2-1.6c0.6,0,1.3,0.3,1.8,0.8c0.1,0.1,0.1,0.3,0,0.3l-0.5,0.4
		c-0.1,0.1-0.3,0.1-0.3,0c-0.2-0.3-0.6-0.5-0.9-0.5c-0.4,0-0.7,0.2-0.7,0.5c0,0.4,0.4,0.5,1,0.7C76.2,4.5,77,5,77,5.9
		c0,1-0.9,1.7-2.1,1.7c-0.8,0-1.6-0.3-2-1C72.8,6.5,72.8,6.4,72.9,6.3z"/>
</g>
</svg>
